  http://www.shotpix.com/images/23019218363164581101.jpg

  
http://www.imdb.com/title/tt1988591/

Plot
Get ready for an explosive, action-fueled ride when hardened criminals race for their freedom in vicious new vehicles and face off in the ultimate blood sport in the all-new original feature DEATH RACE 3: INFERNO.
 
In this all-new original feature film based on the hit franchise, the popular Death Race is transported across the globe to the unforgiving and rugged terrain of South Africa where Frankenstein - the greatest Death Race driver of all time - takes on this ultimate challenge to not only save himself, but his pit crew, as well.




Director: 
Roel Reiné

 Writers: 
Tony Giglio (screenplay), Tony Giglio (story)
 
Stars:
 Danny Trejo, Ving Rhames and Dougray Scott

Genres:
 Action , Crime , Thriller 

Country:
USA 

Language:
English 



Format                                   : AVI
Format/Info                              : Audio Video Interleave
File size                                : 700 MiB
Duration                                 : 1h 45mn
Overall bit rate mode                    : Variable
Overall bit rate                         : 929 Kbps
Writing application                      : VirtualDubMod 1.5.4.1 (build 2178/release)
Writing library                          : VirtualDubMod build 2178/release

Video
ID                                       : 0
Format                                   : MPEG-4 Visual
Format profile                           : Advanced Simple@L5
Format settings, BVOP                    : 1
Format settings, QPel                    : No
Format settings, GMC                     : No warppoints
Format settings, Matrix                  : Custom
Codec ID                                 : XVID
Codec ID/Hint                            : XviD
Duration                                 : 1h 45mn
Bit rate                                 : 799 Kbps
Width                                    : 624 pixels
Height                                   : 352 pixels
Display aspect ratio                     : 16:9
Frame rate                               : 23.976 fps
Color space                              : YUV
Chroma subsampling                       : 4:2:0
Bit depth                                : 8 bits
Scan type                                : Progressive
Compression mode                         : Lossy
Bits/(Pixel*Frame)                       : 0.152
Stream size                              : 601 MiB (86%)
Writing library                          : XviD 1.2.1 (UTC 2008-12-04)

Audio
ID                                       : 1
Format                                   : MPEG Audio
Format version                           : Version 1
Format profile                           : Layer 3
Mode                                     : Joint stereo
Mode extension                           : MS Stereo
Codec ID                                 : 55
Codec ID/Hint                            : MP3
Duration                                 : 1h 45mn
Bit rate mode                            : Variable
Bit rate                                 : 118 Kbps
Nominal bit rate                         : 128 Kbps
Channel(s)                               : 2 channels
Sampling rate                            : 48.0 KHz
Compression mode                         : Lossy
Stream size                              : 88.7 MiB (13%)
Alignment                                : Aligned on interleaves
Interleave, duration                     : 24 ms (0.58 video frame)
Interleave, preload duration             : 156 ms
Writing library                          : LAME3.98r
Encoding settings                        : -m j -V 4 -q 2 -lowpass 17 --abr 128
Language                                 : English


 
http://www.shotpix.com/images/63720187859646117608.png 
http://www.shotpix.com/images/26005127123286212094.png 
http://www.shotpix.com/images/95800823000004149655.png 
http://www.shotpix.com/images/95462898223130135310.png